<?xml version="1.0" encoding="utf-8"?>
<!-- Generator: Adobe Illustrator 22.0.1, SVG Export Plug-In . SVG Version: 6.00 Build 0)  -->
<svg version="1.1" id="Capa_1" xmlns="http://www.w3.org/2000/svg" xmlns:xlink="http://www.w3.org/1999/xlink" x="0px" y="0px"
	 viewBox="0 0 566.9 425.2" style="enable-background:new 0 0 566.9 425.2;" xml:space="preserve">
<style type="text/css">
	.st0{fill:#010202;}
	.st1{fill:#EB611D;}
	.st2{fill:#E41322;}
	.st3{fill:#F59E21;}
</style>
<path class="st0" d="M170.5,350.7c0-5.7,3.7-10.4,9.8-10.4c5.8,0,9.8,4.5,9.8,10.4c0,5.9-3.9,10.4-9.8,10.4
	C174.2,361,170.5,356.4,170.5,350.7 M196.7,350.7v-16.2h-7v3.9c-2.3-2.9-5.6-4.7-10.2-4.7c-9.1,0-16.2,7.1-16.2,17
	c0,9.9,7.1,17,16.2,17c4.6,0,8-1.8,10.2-4.7v3.9h7V350.7z M434.6,350.7c0-5.7,3.7-10.4,9.8-10.4c5.8,0,9.8,4.5,9.8,10.4
	c0,5.9-3.9,10.4-9.8,10.4C438.3,361,434.6,356.4,434.6,350.7 M460.8,350.7v-29.2h-7v16.9c-2.2-2.9-5.6-4.7-10.2-4.7
	c-9.1,0-16.2,7.1-16.2,17c0,9.9,7.1,17,16.2,17c4.6,0,8-1.8,10.2-4.7v3.9h7V350.7z M284.1,340c4.5,0,7.5,2.8,8.2,7.9h-16.8
	C276.2,343.2,279.1,340,284.1,340 M284.2,333.7c-9.5,0-16.1,6.9-16.1,17c0,10.3,6.9,17,16.6,17c4.9,0,9.3-1.2,13.3-4.5l-3.5-5.2
	c-2.7,2.2-6.2,3.4-9.4,3.4c-4.5,0-8.7-2.1-9.7-7.9h24c0.1-0.9,0.1-1.8,0.1-2.7C299.5,340.6,293.3,333.7,284.2,333.7 M369.2,350.7
	c0-5.7,3.7-10.4,9.8-10.4c5.8,0,9.7,4.5,9.7,10.4c0,5.9-3.9,10.4-9.7,10.4C373,361,369.2,356.4,369.2,350.7 M395.4,350.7v-16.2h-7
	v3.9c-2.2-2.9-5.6-4.7-10.2-4.7c-9.1,0-16.2,7.1-16.2,17c0,9.9,7.1,17,16.2,17c4.6,0,8-1.8,10.2-4.7v3.9h7V350.7z M329.5,350.7
	c0,9.8,6.8,17,17.3,17c4.9,0,8.1-1.1,11.7-3.9l-3.4-5.7c-2.7,1.9-5.4,2.9-8.5,2.9c-5.6-0.1-9.8-4.1-9.8-10.4
	c0-6.2,4.1-10.3,9.8-10.4c3,0,5.8,1,8.5,2.9l3.4-5.7c-3.5-2.8-6.8-3.9-11.7-3.9C336.3,333.7,329.5,340.8,329.5,350.7 M420.2,333.7
	c-4.1,0-6.7,1.9-8.5,4.7v-3.9h-7v32.4h7v-18.1c0-5.3,2.3-8.3,6.9-8.3c1.4,0,2.9,0.2,4.4,0.8l2.2-6.6
	C423.7,333.9,421.7,333.7,420.2,333.7 M231.5,337c-3.4-2.2-8.1-3.4-13.2-3.4c-8.2,0-13.5,3.9-13.5,10.3c0,5.3,3.9,8.5,11.2,9.6
	l3.3,0.5c3.9,0.6,5.7,1.6,5.7,3.4c0,2.5-2.6,3.9-7.4,3.9c-4.9,0-8.4-1.6-10.8-3.4l-3.3,5.5c3.9,2.9,8.7,4.2,14,4.2
	c9.3,0,14.8-4.4,14.8-10.6c0-5.7-4.3-8.7-11.3-9.7l-3.3-0.5c-3.1-0.4-5.5-1-5.5-3.2c0-2.4,2.3-3.8,6.2-3.8c4.1,0,8.1,1.5,10.1,2.8
	L231.5,337z M322.4,333.7c-4.1,0-6.7,1.9-8.6,4.7v-3.9h-7v32.4h7v-18.1c0-5.3,2.3-8.3,6.9-8.3c1.4,0,2.9,0.2,4.4,0.8l2.2-6.6
	C325.8,333.9,323.8,333.7,322.4,333.7 M262.3,334.5h-11.5v-9.8h-7.1v9.8h-6.6v6.4h6.6v14.8c0,7.5,2.9,12,11.3,12
	c3,0,6.6-0.9,8.8-2.5l-2-6c-2.1,1.2-4.4,1.8-6.2,1.8c-3.5,0-4.7-2.2-4.7-5.4v-14.6h11.5V334.5z M157,366.9v-20.3
	c0-7.7-4.9-12.8-12.7-12.9c-4.1-0.1-8.4,1.2-11.4,5.7c-2.2-3.6-5.8-5.7-10.7-5.7c-3.5,0-6.8,1-9.5,4.8v-4h-7.1v32.4h7.1v-17.9
	c0-5.6,3.1-8.6,7.9-8.6c4.7,0,7,3.1,7,8.5v18h7.1v-17.9c0-5.6,3.3-8.6,7.9-8.6c4.8,0,7.1,3.1,7.1,8.5v18H157z"/>
<rect x="229.2" y="87.7" class="st1" width="106.7" height="191.7"/>
<path class="st2" d="M236,183.6c0-38.9,18.2-73.5,46.6-95.9c-20.7-16.3-46.9-26.1-75.3-26.1c-67.3,0-121.9,54.6-121.9,121.9
	c0,67.4,54.6,121.9,121.9,121.9c28.4,0,54.6-9.7,75.3-26.1C254.2,257.1,236,222.5,236,183.6"/>
<path class="st3" d="M479.8,183.6c0,67.4-54.6,121.9-121.9,121.9c-28.4,0-54.6-9.7-75.4-26.1c28.4-22.3,46.6-57,46.6-95.9
	c0-38.9-18.2-73.5-46.6-95.9c20.7-16.3,46.9-26.1,75.4-26.1C425.2,61.7,479.8,116.3,479.8,183.6"/>
</svg>
