<svg id="VISA" xmlns="http://www.w3.org/2000/svg" viewBox="0 0 656.28 515.96"><defs><style>.cls-1{fill:#fefefe;}.cls-1,.cls-10,.cls-11,.cls-12,.cls-13,.cls-14,.cls-15,.cls-16,.cls-2,.cls-3,.cls-4,.cls-5,.cls-6,.cls-7,.cls-8,.cls-9{fill-rule:evenodd;}.cls-2{fill:#2c398e;}.cls-3{fill:#292861;}.cls-4{fill:#2d347b;}.cls-5{fill:#2c3787;}.cls-6{fill:#2d3783;}.cls-7{fill:#2b2d6c;}.cls-8{fill:#2b2f70;}.cls-9{fill:#26245c;}.cls-10{fill:#2d357e;}.cls-11{fill:#2e3376;}.cls-12{fill:#2d2f6d;}.cls-13{fill:#292a65;}.cls-14{fill:#454a87;}.cls-15{fill:#4e60aa;}.cls-16{fill:#ededf6;}</style></defs><title>visa</title><path class="cls-1" d="M365.93,1.05q162.12,0,324.25-.09c3.25,0,3.89.64,3.89,3.89q-.17,254.09,0,508.19c0,3.25-.64,3.88-3.89,3.88q-324.25-.15-648.51,0c-3.24,0-3.88-.63-3.88-3.88q.15-254.1,0-508.19c0-3.25.63-3.89,3.88-3.89Q203.81,1.13,365.93,1.05ZM283.21,276l.17-.09c1.09-.5,1.25-1.48,1.36-2.5l.07,0a7.52,7.52,0,0,0,1.53-4l.24-.21-.11-.31c9.41-20,17.16-40.63,26-60.85,1.09-2.49-.64-2.55-2.38-2.55-9.79,0-19.58,0-29.37,0-1.76,0-3,.37-3.72,2.18-4.21,11-8.48,22.06-12.72,33.08v0c-.35.68-.7,1.36-1.06,2l-9.3,24.41A16.15,16.15,0,0,0,251.1,274v0l-.4.9c-.25.65-.49,1.31-.73,2l-.45,1.11c-1.18.92-1.17,2.36-1.6,3.62-2.56,2.93-1.56,7.72-5,10.18-1.13-.53-1.06-1.38-1.2-2.13-4.33-23.12-8.59-46.24-13-69.34-2-10.56-7.41-14.84-18.05-14.86-16.75,0-33.49-.05-50.24,0-2,0-5.09-1.25-5.48,2s3,2.19,4.78,3c.13.06.31,0,.47,0,8.67,2.66,17.34,5.25,25.72,8.86a16.26,16.26,0,0,1,9.38,10.12,86,86,0,0,1,2.16,8.75,56.5,56.5,0,0,0,3.37,12.32c.16.64.33,1.28.49,1.91s.33,1.21.5,1.81c.87,3.15.74,6.53,2.25,9.53,1,4.16,1.47,8.47,3.4,12.38.82,3.56,1.55,7.14,2.46,10.68q3.83,14.76,7.77,29.49c1.65,6.18,3.38,12.34,5.07,18.51.08,1.66,1.35,1.47,2.4,1.47,10.35,0,20.7,0,31,0a3.3,3.3,0,0,0,3.48-2.46c2.76-7,5.61-13.92,8.43-20.88a11.36,11.36,0,0,0,2.22-5.58,2.11,2.11,0,0,0,1-2.3c4.08-8.49,8.29-16.93,10.24-26.25a.78.78,0,0,0,.36-.74l.64-1C282.76,276.74,283,276.35,283.21,276ZM350.7,257c.1-.82.19-1.65.29-2.48a6.31,6.31,0,0,0,.88-1.6c3.19-14.74,6.29-29.5,9.53-44.23.66-3-.62-3.49-3.17-3.47-9,.08-17.93,0-26.9.06-1.24,0-3-.71-3.37,1.47v0c-3.06,9.25-4.43,18.89-6.51,28.36-3,13.93-5.79,27.92-8.67,41.88l-.18,1.45a165.33,165.33,0,0,0-5.49,25.09.56.56,0,0,0-.09.69,253.69,253.69,0,0,0-6.59,30.6c.08,1.67,1.35,1.42,2.38,1.42,5.9-.05,11.8-.14,17.7-.21,3.57.84,7.2.14,10.79.4,2.23.17,2.92-1,3.32-3,1.46-7.24,3.14-14.43,4.64-21.66q4.39-21.19,8.69-42.41c.06-.49.11-1,.17-1.46C349.84,264.46,350.2,260.73,350.7,257ZM538,317.56a7.86,7.86,0,0,0,1.29,5.05l.11-.07c.6,3.4,1.31,6.79,1.75,10.21.35,2.75,1.63,3.63,4.39,3.57q11.84-.26,23.69,0c3.35.08,3.92-.92,3.23-4.14-4.49-21-8.77-42-13.14-63-4-19.47-8-38.94-12.22-58.38-.48-2.24.13-5.57-4.23-5.45-8.84.26-17.69,0-26.53.16-4,.09-7.79,1.24-10.28,4.83-.31.34-.61.69-.91,1a6.53,6.53,0,0,0-2.69,4.89c-6.84,15-13.22,30.1-19,45.48l-.87,1.92-.44.82c-.11.36-.23.72-.34,1.07-.46.93-.93,1.85-1.39,2.77q-2.71,6.42-5.43,12.83c-7.18,17.07-14.31,34.16-21.58,51.19-1.32,3.1-.92,4.06,2.63,4,9.3-.2,18.61-.18,27.92,0,2.7.05,3.89-.95,4.77-3.37a105.79,105.79,0,0,0,4.44-15.07,28.5,28.5,0,0,1,4.62-.75c13.34,0,26.69,0,40,.07ZM407.89,205.87c-7.44,2.14-14.73,4.55-21,9.35-13.08,10-19.19,27-14.25,41,3.85,10.95,12.69,17.28,22.25,22.78,5.71,3.28,11.89,5.68,17.25,9.68,8.19,6.1,7.75,11.08,2.16,17.69-3.61,2.71-7.85,3.73-12.19,4.19a64,64,0,0,1-35.34-6.34c-2.67-1.3-3.8-1-4.4,2-1.4,7.26-3,14.5-4.69,21.7-.64,2.72.16,4,2.76,4.87a87.2,87.2,0,0,0,18.85,4.34c13.36,1.51,26.73,2.15,39.75-2.35,10.5-3.11,19.52-8.5,26.47-17.1,11.9-14,10.47-36.63-3.09-48.65C436,263.44,428.54,259.64,421,256c-3.74-2.87-8.33-4.48-11.66-8-4.2-4.41-4-9.2.64-13.08,1.08-.91,2.27-1.69,3.41-2.52,2.14-.5,4.26-1.16,6.42-1.47,10.59-1.51,20.75.33,30.57,4.25,2.66,1.06,3.92.93,4.43-2.28.76-4.82,1.94-9.58,3-14.35,2.29-10.25,2.35-10.44-7.89-12.82C435.92,202.53,421.88,201.63,407.89,205.87Z" transform="translate(-37.79 -0.96)"/><path class="cls-2" d="M506,210.34c2.49-3.59,6.29-4.74,10.28-4.83,8.84-.21,17.69.1,26.53-.16,4.36-.12,3.75,3.21,4.23,5.45,4.17,19.44,8.18,38.91,12.22,58.38,4.37,21,8.65,42,13.14,63,.69,3.22.12,4.22-3.23,4.14q-11.85-.27-23.69,0c-2.76.06-4-.82-4.39-3.57-.44-3.42-1.15-6.81-1.75-10.21,3.5-1.23,1.92-3.8,1.35-5.86-.49-1.79-1.7-3.35-.89-5.39a6.57,6.57,0,0,0-1.57-7.75,6.12,6.12,0,0,1-1.66-4.78c0-1.11,0-2.2-1.16-2.88-4-2.33-7.28-5.77-12.82-4.85-4.59.76-9.42.22-14.14.11-1.24,0-2.94.83-3.61-1.15,7.74,0,15.48-.08,23.22.07,3.12.06,4.28-.65,3.41-4.07-1.4-5.5-2.31-11.12-3.48-16.69-1.85-8.84-3.76-17.68-5.69-26.76-2.25,1.62-1.87,4.15-3.43,5.57-1.23-1.07-3-1.15-2.59-4a7.09,7.09,0,0,0-3.48-7.58,3.81,3.81,0,0,1-1.84-3.13c-.33-3.26-2.48-5.47-5-7.06-1.6-1-3-1.64-2.5-3.79s1.84-2.71,3.85-1.95c.94.35,1.65-.07,1.62-1-.08-2.5-3.51-2.45-4-5-.08-.46-1.33,1.64-2.57,1.7a6.53,6.53,0,0,1,2.69-4.89l.36.21c.73,1.14,1.76,1,2.77.56.2-.08.24-1,.21-1-.7-.2-1.42-.31-2.13-.44Z" transform="translate(-37.79 -0.96)"/><path class="cls-3" d="M160.19,210.43c-.16,0-.34.1-.47,0-1.74-.85-5.19.23-4.78-3s3.5-2,5.48-2c16.75-.08,33.49-.05,50.24,0,10.64,0,16,4.3,18.05,14.86,4.43,23.1,8.69,46.22,13,69.34.14.75.07,1.6,1.2,2.13,3.44-2.46,2.44-7.25,5-10.19,1.52-.76,2.66-1.7,1.6-3.61l.45-1.11c4.54,1.24,6.61,5.81,3.4,8.09-3.74,2.64-2.1,4.28.34,6,1.77,1.23,3.38,2.38,3.16,4.8-.4,4.58,3.74,6.88,5.36,10.47.67,1.48,2.63,1.68,4.22-.29,1.86-2.3,3.56-2.33,4.83-.85a2.11,2.11,0,0,1-1,2.3c-2.49,1.17-2.8,3.2-2.22,5.58-2.82,7-5.67,13.9-8.43,20.88a3.3,3.3,0,0,1-3.48,2.46c-10.35-.05-20.7,0-31,0-1,0-2.32.19-2.4-1.47H245c.13-.47.26-1,.4-1.43-7.62-.13-8.9-4.91-9.49-11s-2.54-12.68-5.52-17.41c-4.18-6.66-1.49-15.22-7.44-20.8-.42-.38-.15-1.52-.16-2.31a4.67,4.67,0,0,0-1.4-3.43c-4.33-4-6-9-6.19-14.76-.06-2.54-.54-4.52-3.84-4.84a4.85,4.85,0,0,1-4.62-5.56c.34-3.85-.75-7.52-1.19-11.24-.25-2.05.8-6.46-4.24-5.13-.26.07-.94-.46-1-.8-1-4.21-2.72-8.46-2.57-12.64.13-3.5-.1-6-2.87-8.23-2-1.59-1.38-3,.92-3.68,1.2-.37,2.45-.6,3.64-1,4.3-1.48,8.86-1.82,13.24-3.29H156.75C157.47,209.28,160.24,208.19,160.19,210.43ZM264.53,312.18a6.92,6.92,0,0,0-1.25-1.48c-.25-.16-1,0-1.12.16-.37.86.16,1.45.92,1.72C263.38,312.68,263.81,312.39,264.53,312.18Z" transform="translate(-37.79 -0.96)"/><path class="cls-4" d="M445.49,317.73c-6.95,8.6-16,14-26.47,17.1.74-.93,1.49-1.86,2.78-3.49-4.93,0-9.16-.48-8.91-6.48.05-1.12-1.68-1.16-2.62-1.69-3.07-1.71-4-7-1.32-9.27a22.8,22.8,0,0,0,5.33-7.53c5.59-6.61,6-11.59-2.16-17.69-5.36-4-11.54-6.4-17.25-9.68-9.56-5.5-18.4-11.83-22.25-22.78-4.94-14,1.17-31,14.25-41,6.29-4.8,13.58-7.21,21-9.35h6.36c-2.73.06-4.2,2.34-6.29,3.23-1,.44-2.83-.82-3.1,1.44-.21,1.78-.19,3.52,1.89,4.33s2.75,2.17,2.85,4.37c.22,4.66.81,9.29,3.74,13.21-1.14.83-2.33,1.61-3.41,2.52-4.65,3.88-4.84,8.67-.64,13.08,3.33,3.49,7.92,5.1,11.66,8-1.57,5.67-4.52,1.48-6.3.51-2.62-1.43-3.34-1.08-3.21,1.76.08,1.69,0,3.22,1.22,4.83,2.19,2.9,3.27,6.43,5.48,9.5,1.78,2.46,2.64,6,4.85,8.65,1.22,1.47.94,3.29-.06,4.88a5.71,5.71,0,0,0,.21,6.63c2.18,3.35,3.61,7.27,5.66,10.46,3,4.69,2.36,9.2,2.45,13.94,0,1.78-2.08,5,1.15,4.65,2.67-.3,7.38,1.93,8.3-3C441.6,314.06,443.34,315.63,445.49,317.73Z" transform="translate(-37.79 -0.96)"/><path class="cls-5" d="M502.41,216.27c1.24-.06,2.49-2.16,2.57-1.7.45,2.53,3.88,2.48,4,5,0,.94-.68,1.36-1.62,1-2-.76-3.37-.29-3.85,1.95s.9,2.79,2.5,3.79c2.52,1.59,4.67,3.8,5,7.06a3.81,3.81,0,0,0,1.84,3.13,7.09,7.09,0,0,1,3.48,7.58c-.45,2.89,1.36,3,2.59,4-3.6,12.05-8.15,23.77-12.69,35.49-1.75.84-2,2.28-1.62,4l.08-.09c-1.67.91-1.91,1.75.11,2.49h.09c.67,2,2.37,1.12,3.61,1.15,4.72.11,9.55.65,14.14-.11,5.54-.92,8.83,2.52,12.82,4.85,1.15.68,1.21,1.77,1.16,2.88a6.12,6.12,0,0,0,1.66,4.78,6.57,6.57,0,0,1,1.57,7.75c-.81,2,.4,3.6.89,5.39.57,2.06,2.15,4.63-1.35,5.86l-.11.07c.17-1.84,1-3.83-1.29-5.05l-.2-.35c-1.57-2.83-5-.3-6.8-2.29a9.16,9.16,0,0,0-5-1c-5.36,0-10.73-.14-16.09.06-5.1.19-8.38-.08-11.08-6.32-3.16-7.32-2.88-16.25-9.37-22.13-.18-.16-.17-.59-.17-.91a30.07,30.07,0,0,0-4.39-14.55c-1.54-2.73-2.49-2.43-4.49-1.74.46-.92.93-1.84,1.39-2.77l1.1-.59-.76-.48.44-.82c.84-.09,2,.33,2.34-.75s-.8-1-1.47-1.17C489.19,246.37,495.57,231.23,502.41,216.27Z" transform="translate(-37.79 -0.96)"/><path class="cls-6" d="M480.34,268.33c2-.69,3-1,4.49,1.74a30.07,30.07,0,0,1,4.39,14.55c0,.32,0,.75.17.91,6.49,5.88,6.21,14.81,9.37,22.13,2.7,6.24,6,6.51,11.08,6.32,5.36-.2,10.73,0,16.09-.06a9.16,9.16,0,0,1,5,1c-1.4,1.54-3.25.87-4.9.88-9.28.07-18.56,0-27.84.07-1.9,0-4.21-.67-5.12,2A105.79,105.79,0,0,1,488.65,333c-.88,2.42-2.07,3.42-4.77,3.37-9.31-.17-18.62-.19-27.92,0-3.55.07-3.95-.89-2.63-4,7.27-17,14.4-34.12,21.58-51.19Q477.61,274.74,480.34,268.33Z" transform="translate(-37.79 -0.96)"/><path class="cls-7" d="M264.24,240.66c4.24-11,8.51-22,12.72-33.08.69-1.81,2-2.19,3.72-2.18,9.79.06,19.58,0,29.37,0,1.74,0,3.47.06,2.38,2.55-8.8,20.22-16.55,40.89-26,60.85-.29-.74-.15-2.13-1.42-1.71a1.75,1.75,0,0,0-1.08,2.52c.67,1,1.56-.16,2.37-.29a7.52,7.52,0,0,1-1.53,4,12.53,12.53,0,0,1-8.59-11.6c-.32-5.91-4.29-9.79-5.7-15a11.84,11.84,0,0,0-3.62-6.26C265.42,239.31,265.08,240.93,264.24,240.66Z" transform="translate(-37.79 -0.96)"/><path class="cls-8" d="M348.13,267.88c-.06.49-.11,1-.17,1.46a3.11,3.11,0,0,0-1.76,2.1q-3.56,17.93-7.09,35.86c-2.64-.24-2.53,1.63-2.68,3.39a2.15,2.15,0,0,1-2.14,2.11c-.93.05-1.2-.67-1.52-1.45-5.62-13.44-8.3-28-15.4-40.89a1.38,1.38,0,0,1,.32-1.69c1.81-2-.18-3-1.15-4.28,2.29-10.85,4.92-21.65,6.76-32.58,1.42-8.42,5.08-16.41,4.67-25.16v0l2.9,0c-.83,6.25-.65,12.38,2.08,18.22a11.57,11.57,0,0,1,.74,5.55,6.41,6.41,0,0,0,1.12,4c3.62,5.07,5.86,10.85,8.44,16.44a3.24,3.24,0,0,0,2.45,1.94c1.35.26,1.85-.89,2.36-1.88a18.81,18.81,0,0,1,3.71-5.38c-.39,2.56-.79,5.11-1.18,7.66-1.17,1.07-.66,2.49-.75,3.79C348.79,260.62,347.81,264.14,348.13,267.88Z" transform="translate(-37.79 -0.96)"/><path class="cls-9" d="M160.19,210.43c.05-2.24-2.72-1.15-3.44-3.18h55.86c-4.38,1.47-8.94,1.81-13.24,3.29-1.19.41-2.44.64-3.64,1-2.3.71-2.9,2.09-.92,3.68,2.77,2.23,3,4.73,2.87,8.23-.15,4.18,1.59,8.43,2.57,12.64.08.34.76.87,1,.8,5-1.33,4,3.08,4.24,5.13.44,3.72,1.53,7.39,1.19,11.24a4.85,4.85,0,0,0,4.62,5.56c3.3.32,3.78,2.3,3.84,4.84.15,5.73,1.86,10.78,6.19,14.76a4.67,4.67,0,0,1,1.4,3.43c0,.79-.26,1.93.16,2.31,6,5.58,3.26,14.14,7.44,20.8,3,4.73,4.92,11.3,5.52,17.41s1.87,10.85,9.49,11c-.14.48-.27,1-.4,1.43h-22.2c-1.69-6.17-3.42-12.33-5.07-18.51q-3.93-14.73-7.77-29.49c-.91-3.54-1.64-7.12-2.46-10.68-.72-4.24.12-8.91-3.4-12.38-1.51-3-1.38-6.38-2.25-9.53.22-.71.33-1.38-.5-1.81-.16-.63-.33-1.27-.49-1.91-.12-4.38-.14-8.79-3.37-12.32a86,86,0,0,0-2.16-8.75,16.26,16.26,0,0,0-9.38-10.12C177.53,215.68,168.86,213.09,160.19,210.43Z" transform="translate(-37.79 -0.96)"/><path class="cls-10" d="M445.49,317.73c-2.15-2.1-3.89-3.67-4.79,1.1-.92,4.93-5.63,2.7-8.3,3-3.23.36-1.12-2.87-1.15-4.65-.09-4.74.57-9.25-2.45-13.94-2.05-3.19-3.48-7.11-5.66-10.46a5.71,5.71,0,0,1-.21-6.63c1-1.59,1.28-3.41.06-4.88-2.21-2.65-3.07-6.19-4.85-8.65-2.21-3.07-3.29-6.6-5.48-9.5-1.21-1.61-1.14-3.14-1.22-4.83-.13-2.84.59-3.19,3.21-1.76,1.78,1,4.73,5.16,6.3-.51,7.59,3.62,15.09,7.42,21.45,13.06C456,281.1,457.39,303.74,445.49,317.73Z" transform="translate(-37.79 -0.96)"/><path class="cls-11" d="M414.28,306.37A22.8,22.8,0,0,1,409,313.9c-2.64,2.25-1.75,7.56,1.32,9.27.94.53,2.67.57,2.62,1.69-.25,6,4,6.49,8.91,6.48-1.29,1.63-2,2.56-2.78,3.49-13,4.5-26.39,3.86-39.75,2.35a87.2,87.2,0,0,1-18.85-4.34c-2.6-.9-3.4-2.15-2.76-4.87,1.71-7.2,3.29-14.44,4.69-21.7.6-3.09,1.73-3.35,4.4-2a64,64,0,0,0,35.34,6.34C406.43,310.1,410.67,309.08,414.28,306.37Z" transform="translate(-37.79 -0.96)"/><path class="cls-12" d="M316.54,264.49c1,1.27,3,2.26,1.15,4.28a1.38,1.38,0,0,0-.32,1.69c7.1,12.89,9.78,27.45,15.4,40.89.32.78.59,1.5,1.52,1.45a2.15,2.15,0,0,0,2.14-2.11c.15-1.76,0-3.63,2.68-3.39-1.18,5.95-3,11.74-3.72,17.83-1.15,9.69-2.15,10.34-11.64,10.5a29.67,29.67,0,0,0-3.23.4c-5.9.07-11.8.16-17.7.21-1,0-2.3.25-2.38-1.42a5.32,5.32,0,0,0,1.85-3.65,167.59,167.59,0,0,1,3.61-17.3c.83-3.1.78-6.43,1.13-9.65a.56.56,0,0,1,.09-.69,87.11,87.11,0,0,0,5.49-25.09l.18-1.45C316,273.4,314.57,268.44,316.54,264.49Z" transform="translate(-37.79 -0.96)"/><path class="cls-6" d="M413.34,232.45c-2.93-3.92-3.52-8.55-3.74-13.21-.1-2.2-.86-3.59-2.85-4.37s-2.1-2.55-1.89-4.33c.27-2.26,2.06-1,3.1-1.44,2.09-.89,3.56-3.17,6.29-3.23h-6.36c14-4.24,28-3.34,42-.09,10.24,2.38,10.18,2.57,7.89,12.82-1.07,4.77-2.25,9.53-3,14.35-.51,3.21-1.77,3.34-4.43,2.28-9.82-3.92-20-5.76-30.57-4.25C417.6,231.29,415.48,232,413.34,232.45Zm2.15-2.56-.32-.12c0,.16,0,.32-.05.48.11,0,.25,0,.33-.08S415.48,230,415.49,229.89Z" transform="translate(-37.79 -0.96)"/><path class="cls-13" d="M264.24,240.66c.84.27,1.18-1.35,2.66-.14a11.84,11.84,0,0,1,3.62,6.26c1.41,5.16,5.38,9,5.7,15a12.53,12.53,0,0,0,8.59,11.6l-.07,0c-1.54.24-1.23,1.48-1.36,2.5l-.17.09c-.23.39-.45.78-.68,1.16l-.64.95a1.46,1.46,0,0,0-.36.75c-1.95,9.32-6.16,17.76-10.24,26.25-1.27-1.48-3-1.45-4.83.85-1.59,2-3.55,1.77-4.22.29-1.62-3.59-5.76-5.89-5.36-10.47.22-2.42-1.39-3.57-3.16-4.8-2.44-1.71-4.08-3.35-.34-6,3.21-2.28,1.14-6.85-3.4-8.09.24-.65.48-1.31.73-2l.4-.9v0a4.58,4.58,0,0,0,2.79-6.88l9.3-24.41c1.11-.29,1.25-1.08,1.06-2Z" transform="translate(-37.79 -0.96)"/><path class="cls-14" d="M330.86,206.74l-2.9,0c.38-2.18,2.13-1.47,3.37-1.47,9-.06,17.93,0,26.9-.06,2.55,0,3.83.45,3.17,3.47-3.24,14.73-6.34,29.49-9.53,44.23a6.31,6.31,0,0,1-.88,1.6c-.14-.41-.27-.82-.41-1.23.39-2.55.79-5.1,1.18-7.66,3.28-11.46,5.06-23.26,7.79-34.84.78-3.3.13-4.17-3.16-4.11C347.88,206.85,339.37,206.74,330.86,206.74Z" transform="translate(-37.79 -0.96)"/><path class="cls-14" d="M320.52,336a29.67,29.67,0,0,1,3.23-.4c9.49-.16,10.49-.81,11.64-10.5.72-6.09,2.54-11.88,3.72-17.83q3.54-17.93,7.09-35.86a3.11,3.11,0,0,1,1.76-2.1q-4.33,21.21-8.69,42.41c-1.5,7.23-3.18,14.42-4.64,21.66-.4,2-1.09,3.19-3.32,3C327.72,336.17,324.09,336.87,320.52,336Z" transform="translate(-37.79 -0.96)"/><path class="cls-14" d="M316.54,264.49c-2,3.95-.55,8.91-3.75,12.5,2.88-14,5.62-28,8.67-41.88,2.08-9.47,3.45-19.11,6.51-28.36.41,8.75-3.25,16.74-4.67,25.16C321.46,242.84,318.83,253.64,316.54,264.49Z" transform="translate(-37.79 -0.96)"/><path class="cls-15" d="M493.09,317.89c.91-2.69,3.22-2,5.12-2,9.28-.06,18.56,0,27.84-.07,1.65,0,3.5.66,4.9-.88,1.85,2,5.23-.54,6.8,2.29-13.35,0-26.7-.1-40-.07A28.5,28.5,0,0,0,493.09,317.89Z" transform="translate(-37.79 -0.96)"/><path class="cls-14" d="M307,304.22c-.35,3.22-.3,6.55-1.13,9.65a167.59,167.59,0,0,0-3.61,17.3,5.32,5.32,0,0,1-1.85,3.65A253.69,253.69,0,0,1,307,304.22Z" transform="translate(-37.79 -0.96)"/><path class="cls-14" d="M312.61,278.44a87.11,87.11,0,0,1-5.49,25.09A165.33,165.33,0,0,1,312.61,278.44Z" transform="translate(-37.79 -0.96)"/><path class="cls-14" d="M197.45,238.16c3.23,3.53,3.25,7.94,3.37,12.32A56.5,56.5,0,0,1,197.45,238.16Z" transform="translate(-37.79 -0.96)"/><path class="cls-14" d="M204.06,263.73c3.52,3.47,2.68,8.14,3.4,12.38C205.53,272.2,205.07,267.89,204.06,263.73Z" transform="translate(-37.79 -0.96)"/><path class="cls-14" d="M348.13,267.88c-.32-3.74.66-7.26,1.7-10.79l.87-.07C350.2,260.73,349.84,264.46,348.13,267.88Z" transform="translate(-37.79 -0.96)"/><path class="cls-3" d="M253.89,267.14A4.58,4.58,0,0,1,251.1,274,16.15,16.15,0,0,1,253.89,267.14Z" transform="translate(-37.79 -0.96)"/><path class="cls-13" d="M268.12,313c-.58-2.38-.27-4.41,2.22-5.58A11.36,11.36,0,0,1,268.12,313Z" transform="translate(-37.79 -0.96)"/><path class="cls-13" d="M286.34,269.35c-.81.13-1.7,1.31-2.37.29a1.75,1.75,0,0,1,1.08-2.52c1.27-.42,1.13,1,1.42,1.71l.11.31Z" transform="translate(-37.79 -0.96)"/><path class="cls-15" d="M538,317.56c2.24,1.22,1.46,3.21,1.29,5.05A7.86,7.86,0,0,1,538,317.56Z" transform="translate(-37.79 -0.96)"/><path class="cls-6" d="M483.38,261.75c.67.2,1.8.1,1.47,1.17s-1.5.66-2.34.75Z" transform="translate(-37.79 -0.96)"/><path class="cls-13" d="M249.53,278c1.06,1.91-.08,2.85-1.6,3.61C248.36,280.33,248.35,278.89,249.53,278Z" transform="translate(-37.79 -0.96)"/><path class="cls-11" d="M350.7,257l-.87.07c.09-1.29-.42-2.71.75-3.78.14.41.27.82.41,1.23C350.89,255.37,350.8,256.2,350.7,257Z" transform="translate(-37.79 -0.96)"/><path class="cls-7" d="M283.38,275.87c.13-1-.18-2.26,1.36-2.5C284.63,274.39,284.47,275.37,283.38,275.87Z" transform="translate(-37.79 -0.96)"/><path class="cls-6" d="M482.07,264.49l.76.48-1.1.59C481.84,265.21,482,264.85,482.07,264.49Z" transform="translate(-37.79 -0.96)"/><path class="cls-14" d="M201.31,252.39c.83.43.72,1.1.5,1.81C201.64,253.6,201.48,253,201.31,252.39Z" transform="translate(-37.79 -0.96)"/><path class="cls-7" d="M264.25,240.69c.19,1,.05,1.75-1.06,2C263.55,242.05,263.9,241.37,264.25,240.69Z" transform="translate(-37.79 -0.96)"/><path class="cls-2" d="M505.1,211.38c.3-.35.6-.7.91-1l.3.33c-.28.31-.56.62-.85.92Z" transform="translate(-37.79 -0.96)"/><path class="cls-3" d="M251.11,274l-.4.9Z" transform="translate(-37.79 -0.96)"/><path class="cls-7" d="M282.53,277.12c.23-.38.45-.77.68-1.16C283,276.35,282.76,276.74,282.53,277.12Z" transform="translate(-37.79 -0.96)"/><path class="cls-7" d="M281.53,278.82a1.46,1.46,0,0,1,.36-.75A.79.79,0,0,1,281.53,278.82Z" transform="translate(-37.79 -0.96)"/><path class="cls-16" d="M506.19,283.6c4.54-11.72,9.09-23.44,12.69-35.49,1.56-1.42,1.18-4,3.43-5.57,1.93,9.08,3.84,17.92,5.69,26.76,1.17,5.57,2.08,11.19,3.48,16.69.87,3.42-.29,4.13-3.41,4.07-7.74-.15-15.48-.07-23.22-.07h-.09c0-.83-.07-1.66-.11-2.49l-.08.09A6.5,6.5,0,0,0,506.19,283.6Z" transform="translate(-37.79 -0.96)"/><path class="cls-5" d="M505.46,211.59c.29-.3.57-.61.85-.92.71.13,1.43.24,2.13.44,0,0,0,1-.21,1C507.22,212.6,506.19,212.73,505.46,211.59Z" transform="translate(-37.79 -0.96)"/><path class="cls-13" d="M264.53,312.18c-.72.21-1.15.5-1.45.4-.76-.27-1.29-.86-.92-1.72.08-.19.87-.32,1.12-.16A6.92,6.92,0,0,1,264.53,312.18Z" transform="translate(-37.79 -0.96)"/><path class="cls-2" d="M506.19,283.6a6.5,6.5,0,0,1-1.62,4C504.15,285.88,504.44,284.44,506.19,283.6Z" transform="translate(-37.79 -0.96)"/><path class="cls-2" d="M504.65,287.51c0,.83.07,1.66.11,2.49C502.74,289.26,503,288.42,504.65,287.51Z" transform="translate(-37.79 -0.96)"/><path class="cls-11" d="M330.86,206.74c8.51,0,17,.11,25.53,0,3.29-.06,3.94.81,3.16,4.11-2.73,11.58-4.51,23.38-7.79,34.84a18.81,18.81,0,0,0-3.71,5.38c-.51,1-1,2.14-2.36,1.88a3.24,3.24,0,0,1-2.45-1.94c-2.58-5.59-4.82-11.37-8.44-16.44a6.41,6.41,0,0,1-1.12-4,11.57,11.57,0,0,0-.74-5.55C330.21,219.12,330,213,330.86,206.74Z" transform="translate(-37.79 -0.96)"/><path class="cls-4" d="M415.49,229.89c0,.1,0,.25,0,.28s-.22.06-.33.08c0-.16,0-.32.05-.48Z" transform="translate(-37.79 -0.96)"/></svg>